<?xml version="1.0" encoding="UTF-8"?>
<svg width="22px" height="24px" viewBox="0 0 22 24" version="1.1" xmlns="http://www.w3.org/2000/svg" xmlns:xlink="http://www.w3.org/1999/xlink">
    <!-- Generator: Sketch 51.3 (57544) - http://www.bohemiancoding.com/sketch -->
    <title>书本</title>
    <desc>Created with Sketch.</desc>
    <defs></defs>
    <g id="Page-3" stroke="none" stroke-width="1" fill="none" fill-rule="evenodd">
        <g id="画板" transform="translate(-828.000000, -53.000000)" fill="#FFFFFF" fill-rule="nonzero">
            <g id="书本" transform="translate(827.000000, 53.000000)">
                <rect id="Rectangle-path" opacity="0" x="0" y="0" width="24" height="24"></rect>
                <path d="M19.7749162,1.69342036 C20.1644029,1.69342036 20.4819192,2.01093668 20.4819192,2.40042335 L20.4819192,21.5995766 C20.4819192,21.9890633 20.1644029,22.3065796 19.7749162,22.3065796 L4.22931734,22.3065796 C3.83983066,22.3065796 3.52231434,21.9890633 3.52231434,21.5995766 L3.52231434,2.40042335 C3.52231434,2.01093668 3.83983066,1.69342036 4.22931734,1.69342036 L19.7749162,1.69342036 Z M19.7749162,0 L4.22931734,0 C2.89998237,0 1.82889398,1.07532192 1.82889398,2.40042335 L1.82889398,21.5995766 C1.82889398,22.9246781 2.90421591,24 4.22931734,24 L19.7749162,24 C21.1000176,24 22.1753396,22.9246781 22.1753396,21.5995766 L22.1753396,2.40042335 C22.1753396,1.07532192 21.1000176,0 19.7749162,0 Z" id="Shape"></path>
                <path d="M16.6886576,1.69342036 L16.6886576,6.06244488 L15.6641383,5.56288587 C15.4270594,5.44857998 15.1603457,5.38507673 14.893632,5.38507673 C14.6269183,5.38507673 14.3602046,5.44434645 14.1231258,5.56288587 L13.0986064,6.05821132 L13.0986064,1.69342036 L16.6886576,1.69342036 Z M17.9841242,0 L11.8073734,0 C11.5872288,0 11.4051861,0.16087493 11.4051861,0.359851828 L11.4051861,8.16228612 C11.4051861,8.36973012 11.5956959,8.52213795 11.8073734,8.52213795 C11.8708767,8.52213795 11.93438,8.50943728 11.9978832,8.47980244 L14.8639972,7.09119773 C14.8724643,7.08696417 14.8851649,7.08273063 14.8978656,7.08273063 C14.9105662,7.08273063 14.9190334,7.0869642 14.931734,7.09119773 L17.797848,8.47980244 C17.8613512,8.5094373 17.9248545,8.52213795 17.9883577,8.52213795 C18.2000353,8.52213795 18.3905451,8.36973012 18.3905451,8.16228612 L18.3905451,0.359851828 C18.382078,0.16087493 18.2042688,0 17.9841242,0 Z M17.5353678,13.4584583 L6.46463222,13.4584583 C5.99894161,13.4584583 5.61792204,13.0774387 5.61792204,12.6117481 C5.61792204,12.1460575 5.99894161,11.7650379 6.46463222,11.7650379 L17.5353678,11.7650379 C18.0010584,11.7650379 18.382078,12.1460575 18.382078,12.6117481 C18.382078,13.0774387 18.0052919,13.4584583 17.5353678,13.4584583 Z M12.6117481,17.9417887 L6.46463222,17.9417887 C5.99894161,17.9417887 5.61792204,17.5607691 5.61792204,17.0950785 C5.61792204,16.6293879 5.99894161,16.2483683 6.46463222,16.2483683 L12.6117481,16.2483683 C13.0774387,16.2483683 13.4584583,16.6293879 13.4584583,17.0950785 C13.4584583,17.5607691 13.0774387,17.9417887 12.6117481,17.9417887 Z" id="Shape"></path>
            </g>
        </g>
    </g>
</svg>