<?xml version="1.0" encoding="UTF-8"?>
<svg width="18px" height="19px" viewBox="0 0 18 19" version="1.1" xmlns="http://www.w3.org/2000/svg" xmlns:xlink="http://www.w3.org/1999/xlink">
    <!-- Generator: Sketch 51.3 (57544) - http://www.bohemiancoding.com/sketch -->
    <title>日历</title>
    <desc>Created with Sketch.</desc>
    <defs></defs>
    <g id="Page-3" stroke="none" stroke-width="1" fill="none" fill-rule="evenodd">
        <g id="画板" transform="translate(-756.000000, -31.000000)" fill="#FFFFFF" fill-rule="nonzero">
            <g id="日历" transform="translate(753.000000, 29.000000)">
                <rect id="Rectangle-path" opacity="0" x="0" y="0" width="24" height="24"></rect>
                <path d="M18,5.25 C17.5857864,5.25 17.25,4.91421356 17.25,4.5 C17.25,4.08578644 17.5857864,3.75 18,3.75 L18.75,3.75 C19.9926407,3.75 21,4.75735931 21,6 L21,18.75 C21,19.9926407 19.9926407,21 18.75,21 L5.25,21 C4.00735931,21 3,19.9926407 3,18.75 L3,6 C3,4.75735931 4.00735931,3.75 5.25,3.75 L6,3.75 C6.41421356,3.75 6.75,4.08578644 6.75,4.5 C6.75,4.91421356 6.41421356,5.25 6,5.25 L5.25,5.25 C4.83578644,5.25 4.5,5.58578644 4.5,6 L4.5,18.75 C4.5,19.1642136 4.83578644,19.5 5.25,19.5 L18.75,19.5 C19.1642136,19.5 19.5,19.1642136 19.5,18.75 L19.5,6 C19.5,5.58578644 19.1642136,5.25 18.75,5.25 L18,5.25 Z M7.5,3 C7.5,2.58578644 7.83578644,2.25 8.25,2.25 C8.66421356,2.25 9,2.58578644 9,3 L9,5.25 C9,5.66421356 8.66421356,6 8.25,6 C7.83578644,6 7.5,5.66421356 7.5,5.25 L7.5,3 Z M15,3 C15,2.58578644 15.3357864,2.25 15.75,2.25 C16.1642136,2.25 16.5,2.58578644 16.5,3 L16.5,5.25 C16.5,5.66421356 16.1642136,6 15.75,6 C15.3357864,6 15,5.66421356 15,5.25 L15,3 Z M10.5,5.25 C10.0857864,5.25 9.75,4.91421356 9.75,4.5 C9.75,4.08578644 10.0857864,3.75 10.5,3.75 L13.5,3.75 C13.9142136,3.75 14.25,4.08578644 14.25,4.5 C14.25,4.91421356 13.9142136,5.25 13.5,5.25 L10.5,5.25 Z M9,13.5 C8.58578644,13.5 8.25,13.1642136 8.25,12.75 C8.25,12.3357864 8.58578644,12 9,12 L15,12 C15.4142136,12 15.75,12.3357864 15.75,12.75 C15.75,13.1642136 15.4142136,13.5 15,13.5 L9,13.5 Z M9,9.75 C8.58578644,9.75 8.25,9.41421356 8.25,9 C8.25,8.58578644 8.58578644,8.25 9,8.25 L15,8.25 C15.4142136,8.25 15.75,8.58578644 15.75,9 C15.75,9.41421356 15.4142136,9.75 15,9.75 L9,9.75 Z M9,17.25 C8.58578644,17.25 8.25,16.9142136 8.25,16.5 C8.25,16.0857864 8.58578644,15.75 9,15.75 L15,15.75 C15.4142136,15.75 15.75,16.0857864 15.75,16.5 C15.75,16.9142136 15.4142136,17.25 15,17.25 L9,17.25 Z" id="Shape"></path>
            </g>
        </g>
    </g>
</svg>