<?xml version="1.0" encoding="UTF-8"?>
<svg width="22px" height="22px" viewBox="0 0 22 22" version="1.1" xmlns="http://www.w3.org/2000/svg" xmlns:xlink="http://www.w3.org/1999/xlink">
    <!-- Generator: Sketch 51.3 (57544) - http://www.bohemiancoding.com/sketch -->
    <title>时间</title>
    <desc>Created with Sketch.</desc>
    <defs></defs>
    <g id="Page-3" stroke="none" stroke-width="1" fill="none" fill-rule="evenodd">
        <g id="画板" transform="translate(-210.000000, -53.000000)" fill="#FFFFFF" fill-rule="nonzero">
            <g id="时间" transform="translate(209.000000, 52.000000)">
                <rect id="Rectangle-path" opacity="0" x="0" y="0" width="24" height="24"></rect>
                <path d="M11.4824069,13.7941516 L16.3249397,13.7941516 C16.74041,13.7941516 17.0766141,13.4575878 17.0766141,13.0424772 C17.0766141,12.6273666 16.74041,12.2908028 16.3249397,12.2908028 L12.2340813,12.2908028 L12.2340813,8.04839119 C12.2340813,7.63328062 11.8978772,7.29671681 11.4824069,7.29671681 C11.0669366,7.29671681 10.7307325,7.63328062 10.7307325,8.04839119 L10.7307325,13.0421174 C10.7307325,13.0421894 10.7307325,13.0422374 10.7307325,13.0423093 C10.7307325,13.0423812 10.7307325,13.0424292 10.7307325,13.0425011 C10.7307326,13.4575878 11.0669366,13.7941516 11.4824069,13.7941516 Z M18.4367799,3.76410394 C16.2368474,2.04533327 13.4995833,1.28706338 10.7285261,1.6272967 C7.95823631,1.96753003 5.48594452,3.36662145 3.76753362,5.56657786 C3.51208282,5.89395591 3.57007549,6.36631563 3.89745354,6.62176645 C4.22483159,6.87721725 4.69683157,6.81812133 4.95228237,6.4922063 C6.42332501,4.60864336 8.54032167,3.41067956 10.9120257,3.11925316 C13.2873992,2.82931373 15.628284,3.47747428 17.511871,4.94887669 C21.3993953,7.98562577 22.0916139,13.6198378 19.0548409,17.5084653 C16.0173483,21.396733 10.384983,22.0896712 6.49525226,19.0514351 C3.84536084,16.9813986 2.58645438,13.6411113 3.21041534,10.3334659 C3.28749907,9.9253346 3.01955273,9.53224113 2.61142146,9.45518137 C2.20695968,9.38104765 1.80983693,9.64676348 1.7334967,10.054535 C1.00458291,13.9174759 2.47488204,17.8189347 5.5703673,20.2361599 C7.42603716,21.685905 9.66415172,22.4522574 11.9830195,22.4522574 C12.4124484,22.4522574 12.8448032,22.4265708 13.2778776,22.3729911 C16.0489109,22.032398 18.5212026,20.6333066 20.2395896,18.4333502 C23.7872642,13.8917894 22.9783407,7.31139488 18.4367799,3.76410394 Z" id="Shape"></path>
            </g>
        </g>
    </g>
</svg>