<?xml version="1.0" encoding="UTF-8"?>
<svg width="22px" height="20px" viewBox="0 0 22 20" version="1.1" xmlns="http://www.w3.org/2000/svg" xmlns:xlink="http://www.w3.org/1999/xlink">
    <!-- Generator: Sketch 51.3 (57544) - http://www.bohemiancoding.com/sketch -->
    <title>柱状图 图表</title>
    <desc>Created with Sketch.</desc>
    <defs></defs>
    <g id="Page-3" stroke="none" stroke-width="1" fill="none" fill-rule="evenodd">
        <g id="画板" transform="translate(-712.000000, -32.000000)" fill="#FFFFFF" fill-rule="nonzero">
            <g id="柱状图-图表" transform="translate(711.000000, 31.000000)">
                <rect id="Rectangle-path" opacity="0" x="0" y="0" width="24" height="24"></rect>
                <path d="M6,10.5 L3,10.5 C2.1705,10.5 1.5,11.1705 1.5,12 L1.5,19.5 C1.5,20.3295 2.1705,21 3,21 L6,21 C6.8295,21 7.5,20.3295 7.5,19.5 L7.5,12 C7.5,11.1705 6.8295,10.5 6,10.5 Z M6,19.5 L3,19.5 L3,12 L6,12 L6,19.5 Z M21,7.5 L18,7.5 C17.1705,7.5 16.5,8.1705 16.5,9 L16.5,19.5 C16.5,20.3295 17.1705,21 18,21 L21,21 C21.8295,21 22.5,20.3295 22.5,19.5 L22.5,9 C22.5,8.1705 21.8295,7.5 21,7.5 Z M21,19.5 L18,19.5 L18,9 L21,9 L21,19.5 Z M13.5,1.5 L10.5,1.5 C9.6705,1.5 9,2.1705 9,3 L9,19.5 C9,20.3295 9.6705,21 10.5,21 L13.5,21 C14.3295,21 15,20.3295 15,19.5 L15,3 C15,2.1705 14.3295,1.5 13.5,1.5 Z M13.5,19.5 L10.5,19.5 L10.5,3 L13.5,3 L13.5,19.5 Z" id="Shape"></path>
            </g>
        </g>
    </g>
</svg>