<?xml version="1.0" encoding="UTF-8"?>
<svg width="18px" height="20px" viewBox="0 0 18 20" version="1.1" xmlns="http://www.w3.org/2000/svg" xmlns:xlink="http://www.w3.org/1999/xlink">
    <!-- Generator: Sketch 51.3 (57544) - http://www.bohemiancoding.com/sketch -->
    <title>档案</title>
    <desc>Created with Sketch.</desc>
    <defs></defs>
    <g id="Page-3" stroke="none" stroke-width="1" fill="none" fill-rule="evenodd">
        <g id="画板" transform="translate(-699.000000, -411.000000)" fill="#FFFFFF" fill-rule="nonzero">
            <g id="档案" transform="translate(696.000000, 409.000000)">
                <rect id="Rectangle-path" opacity="0" x="0" y="0" width="24" height="24"></rect>
                <path d="M19.0316016,21.6766875 L5.04292969,21.6766875 C4.16336719,21.6766875 3.44779687,20.9611172 3.44779687,20.0815547 L3.44779687,3.94567969 C3.44779687,3.06614063 4.16336719,2.35054688 5.04292969,2.35054688 L19.0316016,2.35054688 C19.9111406,2.35054688 20.6267344,3.06611719 20.6267344,3.94567969 L20.6267344,20.0815781 C20.6267109,20.9611172 19.9111406,21.6766875 19.0316016,21.6766875 Z M5.04292969,3.85054688 C4.99225781,3.85054688 4.94779687,3.89498437 4.94779687,3.94567969 L4.94779687,20.0815781 C4.94779687,20.13225 4.99223437,20.1767109 5.04292969,20.1767109 L19.0316016,20.1767109 C19.0822734,20.1767109 19.1267344,20.1322734 19.1267344,20.0815781 L19.1267344,3.94567969 C19.1267344,3.89500781 19.0822969,3.85054688 19.0316016,3.85054688 L5.04292969,3.85054688 Z" id="Shape"></path>
                <polygon id="Shape" points="4.1604375 9.30225 4.16371875 7.80225 19.8075469 7.83665625 19.8042422 9.33665625"></polygon>
                <polygon id="Shape" points="11.4161719 6.65395312 12.5880469 6.65395312 12.5880469 10.0990312 11.4161719 10.0990312"></polygon>
                <path d="M10.4318672,5.63446875 C10.4318672,6.21220909 10.740088,6.74606318 11.2404258,7.03493336 C11.7407636,7.32380353 12.3572052,7.32380353 12.857543,7.03493336 C13.3578808,6.74606318 13.6661016,6.21220909 13.6661016,5.63446875 C13.6661016,4.74135959 12.9420935,4.01735156 12.0489844,4.01735156 C11.1558752,4.01735156 10.4318672,4.74135959 10.4318672,5.63446875 Z" id="Shape"></path>
                <path d="M10.4234766,11.5021641 C10.4234766,12.3952732 11.1474846,13.1192812 12.0405937,13.1192812 C12.9337029,13.1192812 13.6577109,12.3952732 13.6577109,11.5021641 C13.657711,10.9244237 13.3494902,10.3905696 12.8491524,10.1016995 C12.3488146,9.81282928 11.7323729,9.81282928 11.2320351,10.1016995 C10.7316973,10.3905696 10.4234765,10.9244237 10.4234766,11.5021641 Z" id="Shape"></path>
            </g>
        </g>
    </g>
</svg>