<?xml version="1.0" encoding="UTF-8"?>
<svg width="16px" height="18px" viewBox="0 0 16 18" version="1.1" xmlns="http://www.w3.org/2000/svg" xmlns:xlink="http://www.w3.org/1999/xlink">
    <!-- Generator: Sketch 51.3 (57544) - http://www.bohemiancoding.com/sketch -->
    <title>派工绩效</title>
    <desc>Created with Sketch.</desc>
    <defs></defs>
    <g id="Page-3" stroke="none" stroke-width="1" fill="none" fill-rule="evenodd">
        <g id="画板" transform="translate(-4.000000, -3.000000)" fill="#FFFFFF" fill-rule="nonzero">
            <g id="派工绩效">
                <rect id="Rectangle-path" opacity="0" x="0" y="0" width="24" height="24"></rect>
                <path d="M18,15 L16.5,15 C16.293,15 16.125,15.168 16.125,15.375 C16.125,15.582 16.293,15.75 16.5,15.75 L17.48175,15.75 L15.75,17.48175 L15.2595,16.99125 C15.11325,16.845 14.8755,16.845 14.72925,16.99125 L12.77175,18.94875 C12.68475,19.01925 12.6255,19.122 12.6255,19.24275 C12.6255,19.45425 12.79725,19.62525 13.008,19.62525 C13.12875,19.62525 13.2315,19.566 13.302,19.479 L14.99475,17.78625 L15.48525,18.27675 C15.55875,18.35025 15.65475,18.38625 15.75075,18.38625 C15.84675,18.38625 15.94275,18.3495 16.01625,18.27675 L18,16.29225 L18,17.25 C18,17.457 18.168,17.625 18.375,17.625 C18.582,17.625 18.75,17.457 18.75,17.25 L18.75,15.75 L18.75,15.411 C18.7515,15.39075 18.7515,15.37125 18.75,15.351 L18.75,15 L18,15 Z M12,13.8135 C9.23925,13.8135 6.99375,11.568 6.99375,8.80725 C6.99375,6.0465 9.23925,3.801 12,3.801 C14.76075,3.801 17.00625,6.04725 17.00625,8.80725 C17.00625,11.56725 14.76075,13.8135 12,13.8135 Z M12,4.551 C9.65325,4.551 7.74375,6.4605 7.74375,8.80725 C7.74375,11.154 9.65325,13.0635 12,13.0635 C14.34675,13.0635 16.25625,11.154 16.25625,8.80725 C16.25625,6.4605 14.34675,4.551 12,4.551 Z M19.125,20.199 C18.918,20.199 18.75,20.031 18.75,19.824 C18.75,19.491 18.72525,19.1565 18.67725,18.831 C18.6465,18.62625 18.78825,18.43575 18.993,18.405 C19.20225,18.375 19.38825,18.51675 19.419,18.72075 C19.473,19.083 19.5,19.4535 19.5,19.824 C19.5,20.031 19.332,20.199 19.125,20.199 Z M4.875,20.199 C4.668,20.199 4.5,20.031 4.5,19.824 C4.5,16.5135 6.717,13.55325 9.89175,12.624 C10.089,12.5655 10.29825,12.68025 10.35675,12.879 C10.41525,13.07775 10.3005,13.2855 10.10175,13.344 C7.245,14.1795 5.25,16.84425 5.25,19.824 C5.25,20.031 5.082,20.199 4.875,20.199 Z" id="Shape"></path>
            </g>
        </g>
    </g>
</svg>