<?xml version="1.0" encoding="UTF-8"?>
<svg width="20px" height="24px" viewBox="0 0 20 24" version="1.1" xmlns="http://www.w3.org/2000/svg" xmlns:xlink="http://www.w3.org/1999/xlink">
    <!-- Generator: Sketch 51.3 (57544) - http://www.bohemiancoding.com/sketch -->
    <title>租赁合同报表</title>
    <desc>Created with Sketch.</desc>
    <defs></defs>
    <g id="Page-3" stroke="none" stroke-width="1" fill="none" fill-rule="evenodd">
        <g id="画板" transform="translate(-372.000000, -71.000000)" fill="#FFFFFF" fill-rule="nonzero">
            <g id="租赁合同报表" transform="translate(370.000000, 71.000000)">
                <rect id="Rectangle-path" opacity="0" x="0" y="0" width="24" height="24"></rect>
                <path d="M6.71436567,7.37486009 L11.6309235,7.37486009 C11.9218517,7.37486009 12.1576259,7.13903918 12.1576259,6.84811102 C12.1576259,6.55718285 11.9218517,6.32129198 11.6309235,6.32129198 L6.71436567,6.32129198 C6.42339087,6.32129198 6.18754664,6.55718285 6.18754664,6.84811102 C6.18754664,7.13903918 6.42343751,7.37486009 6.71436567,7.37486009 Z M6.18754664,12.1158815 C6.18754664,12.4068097 6.42336755,12.6427006 6.71436567,12.6427006 L17.2499534,12.6427006 C17.5407649,12.6427006 17.7766558,12.4068097 17.7766558,12.1158815 C17.7766558,11.8249534 17.5407649,11.5891325 17.2499534,11.5891325 L6.71436567,11.5891325 C6.42343751,11.5891091 6.18754664,11.8249534 6.18754664,12.1158815 Z M16.3719216,0.351212695 L15.3182836,0.351212695 L15.3182836,0 L15.3182836,0.351212695 L3.72929105,0.351212695 C2.9534748,0.351212695 2.32455691,0.980107289 2.32455691,1.75594683 L2.32455691,22.4758162 C2.32455691,23.2515858 2.95345151,23.8805504 3.72929105,23.8805504 L20.5861241,23.8805504 C21.3618937,23.8805504 21.9908582,23.2515858 21.9908582,22.4758162 L21.9908582,6.32133863 L16.3719216,0.351212695 Z M16.3719216,1.75594683 L20.5861241,6.32129198 L17.074347,6.32129198 C16.6862873,6.32129198 16.3719217,6.00687968 16.3719217,5.61898322 L16.3719216,1.75594683 Z M20.5861241,21.7735075 C20.5861241,22.161334 20.2716418,22.4758162 19.8838153,22.4758162 L4.43166977,22.4758162 C4.04372667,22.4758162 3.72931437,22.161334 3.72931437,21.7735075 L3.72931437,2.45830223 C3.72931437,2.07042909 4.04379663,1.75594683 4.43166977,1.75594683 L15.3183069,1.75594683 L15.3183069,5.97014925 C15.3183069,6.74596549 15.9472714,7.37488338 16.7231576,7.37488338 L20.5861474,7.37488338 L20.5861474,21.7735075 L20.5861241,21.7735075 Z M17.2499534,17.2079757 L6.71436567,17.2079757 C6.42339087,17.2079757 6.18754664,17.4438666 6.18754664,17.7347948 C6.18754664,18.0258395 6.42336755,18.2616138 6.71436567,18.2616138 L17.2499534,18.2616138 C17.5407649,18.2616138 17.7766558,18.0258396 17.7766558,17.7347948 C17.7766558,17.4438666 17.5407649,17.2079757 17.2499534,17.2079757 Z" id="Shape"></path>
            </g>
        </g>
    </g>
</svg>