<?xml version="1.0" encoding="UTF-8"?>
<svg width="24px" height="24px" viewBox="0 0 24 24" version="1.1" xmlns="http://www.w3.org/2000/svg" xmlns:xlink="http://www.w3.org/1999/xlink">
    <!-- Generator: Sketch 51.3 (57544) - http://www.bohemiancoding.com/sketch -->
    <title>签到足迹</title>
    <desc>Created with Sketch.</desc>
    <defs></defs>
    <g id="Page-3" stroke="none" stroke-width="1" fill="none" fill-rule="evenodd">
        <g id="画板" transform="translate(-71.000000, -46.000000)" fill="#FFFFFF" fill-rule="nonzero">
            <g id="签到足迹" transform="translate(71.000000, 46.000000)">
                <rect id="Rectangle-path" opacity="0" x="0" y="0" width="24" height="24"></rect>
                <path d="M0.0345,23.7256364 L2.79722728,15.3177273 L5.72495454,15.3177273 C5.97604547,15.786064 6.24227665,16.2461245 6.52322728,16.6971818 L3.7665,16.6971818 L1.99022728,22.3461818 L22.0654091,22.3461818 L20.4077727,16.6971818 L17.4759545,16.6971818 C17.7568039,16.2460638 18.0230332,15.7860065 18.2742273,15.3177273 L21.4051364,15.3177273 L23.9652273,23.7256364 L0.0345,23.7256364 Z M14.0093182,19.0628182 C12.3459545,20.7010909 11.6521364,20.7010909 9.98877272,19.0628182 C7.98286362,17.0871818 6.23686362,14.5502727 5.06795454,11.991 C4.39895454,10.5264545 4.05995454,9.26181818 4.05995454,8.23172728 C4.0612799,6.12266945 4.89701647,4.09980262 6.38468182,2.60481818 C7.88413636,1.10181818 9.87804546,0.27381818 11.9990455,0.27381818 C14.1056271,0.276048122 16.125166,1.11444908 17.6139545,2.60481818 C19.102271,4.09947968 19.9385361,6.12243908 19.9400455,8.23172728 C19.9400455,9.26181818 19.6007727,10.5267273 18.9315,11.991 C17.7623182,14.5502727 16.0157727,17.0871818 14.0093182,19.0628182 Z M11.9990455,1.65327272 C8.38022728,1.65327272 5.43613636,4.68081818 5.43613636,8.23172728 C5.43613636,9.77945456 6.51695454,12.2421818 8.3275909,14.8197273 C9.33340908,16.2512727 10.5857727,17.8824546 11.9990455,18.945 C13.4125909,17.8819091 14.6652273,16.2512727 15.6713182,14.8194545 C17.4825,12.2419091 18.5635909,9.77918182 18.5635909,8.23172728 C18.5635909,4.60227274 15.5455909,1.65327274 11.9990455,1.65327272 Z M11.9993182,12.4292727 C9.69013636,12.4292727 7.8115909,10.5463636 7.8115909,8.232 C7.8115909,5.9170909 9.69013636,4.0339091 11.9993182,4.0339091 C14.3090455,4.0339091 16.1881364,5.91709092 16.1881364,8.232 C16.1881364,10.5463636 14.3090455,12.4292727 11.9993182,12.4292727 Z M14.0543182,6.17263636 C13.5108706,5.62490746 12.7706269,5.31774955 11.9990455,5.31981818 C11.2234091,5.31981818 10.4938636,5.62254546 9.9454091,6.17263636 C9.39858141,6.71820828 9.09226224,7.45955956 9.0945,8.232 C9.09217186,9.00432458 9.39839886,9.74559224 9.94513636,10.2910909 C10.4881925,10.8385377 11.2279396,11.1455951 11.9990455,11.1436364 C12.7755,11.1436364 13.5053182,10.8409091 14.0543182,10.2908182 C14.6012328,9.74541596 14.9075742,9.00410911 14.9052273,8.23172728 C14.9052273,7.45418182 14.6030455,6.72272728 14.0543182,6.17263636 Z" id="Shape"></path>
            </g>
        </g>
    </g>
</svg>