<?xml version="1.0" encoding="UTF-8"?>
<svg width="60px" height="56px" viewBox="0 0 60 56" version="1.1" xmlns="http://www.w3.org/2000/svg" xmlns:xlink="http://www.w3.org/1999/xlink">
    <!-- Generator: Sketch 51.3 (57544) - http://www.bohemiancoding.com/sketch -->
    <title>joinus</title>
    <desc>Created with Sketch.</desc>
    <defs></defs>
    <g id="Page-1" stroke="none" stroke-width="1" fill="none" fill-rule="evenodd">
        <g id="joinus">
            <rect id="Rectangle" fill="#FFFFFF" x="0" y="0" width="60" height="56"></rect>
            <path d="M39.5795101,29.3931958 C31.5206434,29.3931958 24.9873457,22.8598394 24.9873457,14.8006792 C24.9873457,6.74181245 31.5207022,0.208514766 39.5795101,0.208514766 C47.6383768,0.208514766 54.1716745,6.74157766 54.1716745,14.8006792 C54.1716745,22.8598394 47.6383181,29.3931958 39.5795101,29.3931958 Z M39.5795101,25.9508629 C45.7374908,25.9508629 50.7296645,20.958971 50.7296645,14.801002 C50.7296645,8.64331481 45.7377726,3.65114114 39.5795101,3.65114114 C33.4212359,3.65114114 28.4296492,8.64303302 28.4296492,14.801002 C28.4296492,20.9589827 33.4215412,25.9508629 39.5795101,25.9508629 Z" id="Shape" fill="#C30D23" fill-rule="nonzero"></path>
            <path d="M31.5140692,3.12791616 L30.0339327,6.23635546 C24.9774257,3.8407895 18.936372,5.99803095 16.5410702,11.0542362 C14.1455042,16.1104438 16.3024451,22.1515034 21.3586516,24.5470987 L21.358652,24.5470989 C24.8734069,26.2122818 29.0311665,25.7183825 32.0580034,23.2761338 L34.2266652,25.9472942 C28.3950764,30.6575868 19.8493366,29.7484675 15.1387387,23.9171781 C10.4284461,18.0855892 11.3372662,9.53955593 17.1688549,4.82925159 L17.1688546,4.82925177 C21.2258586,1.55203136 26.8018926,0.889315727 31.5140166,3.12431248 L31.5140166,3.1279189 L31.5140692,3.12791616 Z" id="Shape" fill="#C30D23" fill-rule="nonzero"></path>
            <path d="M51.779425,28.8044517 C52.6444032,29.1990634 53.0257132,30.2201609 52.6311021,31.0851392 C52.2364904,31.9501174 51.2153929,32.3314275 50.3504146,31.9368164 C50.315481,31.9208794 50.2810902,31.9037779 50.2473005,31.8855409 C38.3608346,25.9938744 23.9492849,30.853202 18.0572662,42.7396797 L18.057268,42.7396759 C16.4125884,46.0575977 15.5574245,49.7109217 15.5586161,53.4140805 C15.5408515,54.3646527 14.7558581,55.1208454 13.8052859,55.1030833 C12.8797369,55.0857862 12.1335816,54.3396355 12.1162832,53.4140805 C12.1117752,38.2463792 24.4036586,25.9469708 39.5713599,25.9427445 L39.5713582,25.9427445 C43.8066584,25.9415765 47.9848801,26.91986 51.7793735,28.8011349 L51.7793735,28.8044407 L51.779425,28.8044517 Z" id="Shape" fill="#C30D23" fill-rule="nonzero"></path>
            <path d="M30.3260154,26.5774966 C31.2449961,26.8192233 31.794019,27.7601619 31.5522935,28.6791484 C31.5521622,28.6796476 31.5520307,28.6801467 31.5518989,28.6806458 L31.5518989,28.6806459 C31.3169795,29.5720032 30.4215162,30.12004 29.5208788,29.9236589 C19.255484,27.4427397 8.92217531,33.7530778 6.44158484,44.018179 L6.44158456,44.0181802 C6.08574486,45.4908738 5.90606875,47.0006119 5.90633114,48.5156856 C5.90633114,49.4665806 5.13575737,50.2368491 4.18516763,50.2368491 C3.23457202,50.2368491 2.46400413,49.4665747 2.46400413,48.5156856 C2.46400413,36.0533893 12.5665111,25.9511758 25.0288074,25.9511758 C26.8121852,25.9511758 28.5892471,26.1627526 30.3230366,26.5810967 L30.326042,26.5774903 L30.3260154,26.5774966 Z M56.0957463,44.8876118 C57.0463184,44.8876118 57.8169098,45.6582032 57.8169098,46.6087753 C57.8169098,47.5593474 57.0463184,48.3299388 56.0957462,48.3299388 L42.3056942,48.3299388 C41.3551162,48.3124249 40.5987181,47.5276327 40.6162337,46.5770547 C40.6332866,45.6514998 41.3792471,44.905145 42.3047961,44.8876118 L56.0957873,44.8876118 L56.0957463,44.8876118 Z" id="Shape" fill="#C30D23" fill-rule="nonzero"></path>
            <path d="M50.9220188,53.5003558 L50.9220188,53.5003625 C50.9223471,54.4510168 50.1519557,55.2219427 49.2012956,55.2222714 C48.2506413,55.2225996 47.4797153,54.4522084 47.4793866,53.5015482 L47.4793866,39.7133158 L47.4793866,39.7133188 C47.4968144,38.7627408 48.28154,38.0062723 49.232118,38.0236998 C50.1576788,38.040669 50.9040981,38.7865664 50.9217194,39.7121155 L50.9217194,53.5042806 L50.9217194,53.5003737 L50.9220188,53.5003558 Z" id="Shape" fill="#C30D23" fill-rule="nonzero"></path>
        </g>
    </g>
</svg>