<?xml version="1.0" encoding="UTF-8"?>
<svg width="100px" height="100px" viewBox="0 0 100 100" version="1.1" xmlns="http://www.w3.org/2000/svg" xmlns:xlink="http://www.w3.org/1999/xlink">
    <!-- Generator: Sketch 51.3 (57544) - http://www.bohemiancoding.com/sketch -->
    <title>Group</title>
    <desc>Created with Sketch.</desc>
    <defs>
        <linearGradient x1="-2.22044605e-14%" y1="50%" x2="100%" y2="50%" id="linearGradient-1">
            <stop stop-color="#D0021B" offset="0%"></stop>
            <stop stop-color="#FFFFFF" offset="100%"></stop>
        </linearGradient>
    </defs>
    <g id="Page-1" stroke="none" stroke-width="1" fill="none" fill-rule="evenodd">
        <g id="Group">
            <rect id="Rectangle" fill="#FFFFFF" x="0" y="0" width="100" height="100"></rect>
            <g id="download" transform="translate(10.000000, 15.000000)">
                <path d="M44.7058824,0 C64.1982853,0 80,15.8017147 80,35.2941176 C80,54.7865206 64.1982853,70.5882353 44.7058824,70.5882353 L9.41176471,70.5882353 L9.41176471,35.2941176 C9.41176471,15.8017147 25.2134794,0 44.7058824,0 Z" id="Rectangle-22" stroke="#D0021B" stroke-width="3" transform="translate(44.705882, 35.294118) scale(-1, 1) translate(-44.705882, -35.294118) "></path>
                <path d="M28.8235294,14.1176471 L30,14.1176471 C45.2690489,14.1176471 57.6470588,26.4956569 57.6470588,41.7647059 C57.6470588,57.0337548 45.2690489,69.4117647 30,69.4117647 L0,69.4117647 L0,42.9411765 C0,27.0223807 12.9047336,14.1176471 28.8235294,14.1176471 Z" id="Rectangle-22-Copy" fill="url(#linearGradient-1)" fill-rule="nonzero" style="mix-blend-mode: darken;"></path>
                <path d="M37.6470588,35.8823529 L37.6470588,41.1764706 L34.1176471,41.1764706 C30.8689133,41.1764706 28.2352941,38.5428514 28.2352941,35.2941176 C28.2352941,32.0453839 30.8689133,29.4117647 34.1176471,29.4117647 L34.3771844,29.4117647 C35.5116901,24.0333848 40.2318129,20 45.8823529,20 C51.5328929,20 56.2530158,24.0333848 57.3875215,29.4117647 L57.6470588,29.4117647 C60.8957926,29.4117647 63.5294118,32.0453839 63.5294118,35.2941176 C63.5294118,38.5428514 60.8957926,41.1764706 57.6470588,41.1764706 L57.5752565,41.1764706 C56.9250025,47.1322874 51.9379786,51.7647059 45.8823529,51.7647059 L45.8823529,51.6642907 C45.6983653,51.7293211 45.5003738,51.7647059 45.2941176,51.7647059 C44.3194975,51.7647059 43.5294118,50.9746201 43.5294118,50 L43.5294118,47.0999731 C43.5294118,46.1253529 44.3194975,45.3352672 45.2941176,45.3352672 C46.2687378,45.3352672 47.0588235,46.1253529 47.0588235,47.0999731 L47.0588235,48.1502965 C51.0426504,47.569652 54.1176471,44.0839412 54.1176471,39.8529412 L54.1176471,31.9117647 C54.1176471,27.2725721 50.4206986,23.5294118 45.8823529,23.5294118 C41.3440073,23.5294118 37.6470588,27.2725721 37.6470588,31.9117647 L37.6470588,35.8823529 Z" id="Rectangle-25" fill="#D0021B" fill-rule="nonzero"></path>
            </g>
        </g>
    </g>
</svg>