<?xml version="1.0" encoding="UTF-8"?>
<svg width="100px" height="100px" viewBox="0 0 100 100" version="1.1" xmlns="http://www.w3.org/2000/svg" xmlns:xlink="http://www.w3.org/1999/xlink">
    <!-- Generator: Sketch 51.3 (57544) - http://www.bohemiancoding.com/sketch -->
    <title>Group</title>
    <desc>Created with Sketch.</desc>
    <defs>
        <linearGradient x1="50%" y1="3.38466402%" x2="50%" y2="100%" id="linearGradient-1">
            <stop stop-color="#F8302B" offset="0%"></stop>
            <stop stop-color="#FFFFFF" offset="100%"></stop>
        </linearGradient>
    </defs>
    <g id="Page-1" stroke="none" stroke-width="1" fill="none" fill-rule="evenodd">
        <g id="Group">
            <rect id="Rectangle" fill="#FFFFFF" x="0" y="0" width="100" height="100"></rect>
            <g id="download" transform="translate(10.000000, 16.000000)" fill-rule="nonzero">
                <path d="M17.836718,11.0731747 C23.5304836,6.71575928 30.5537727,3.99715307 38.1964689,3.62580645 L38.1964689,11.4306171 C38.1964689,12.4266798 39.0039373,13.2341482 40,13.2341482 C40.9960627,13.2341482 41.8035311,12.4266798 41.8035311,11.4306171 L41.8035311,3.62580645 C49.4462273,3.99715307 56.4695164,6.71575928 62.163282,11.0731747 L57.1590112,17.0370325 C56.5187545,17.8000608 56.6182805,18.9376481 57.3813088,19.577905 C58.1443371,20.2181617 59.2819245,20.1186357 59.9221813,19.3556074 L64.9162005,13.403967 C70.2174636,18.3611741 74.0285662,24.8816092 75.6087575,32.2262589 L68.0926616,33.5515494 C67.1117312,33.7245138 66.4567456,34.6599304 66.6297101,35.6408607 C66.8026745,36.621791 67.7380911,37.2767767 68.7190214,37.1038123 L76.1900261,35.7864726 C76.3405891,37.1264466 76.4179104,38.4884623 76.4179104,39.86845 C76.4179104,45.9171644 74.9275409,51.7274974 72.1774608,56.8818493 L65.8814433,53.2468419 C65.0188277,52.7488105 63.9158054,53.0443644 63.417774,53.9069801 C62.9197426,54.7695957 63.2152966,55.872618 64.0779122,56.3706494 L70.3223633,59.975885 C68.9958018,61.9571366 67.4683356,63.8154374 65.7555268,65.5226131 L68.2842713,68.0597015 C75.5228475,60.8449311 80,50.8778186 80,39.86845 C80,17.8497131 62.09139,0 40,0 C17.90861,0 0,17.8497131 0,39.86845 C0,50.8778186 4.47715248,60.8449311 11.7157287,68.0597015 L14.2444732,65.5226131 C12.5316644,63.8154374 11.0041982,61.9571366 9.67763666,59.975885 L15.9220878,56.3706494 C16.7847034,55.872618 17.0802574,54.7695957 16.582226,53.9069801 C16.0841946,53.0443644 14.9811723,52.7488105 14.1185567,53.2468419 L7.82253922,56.8818493 C5.0724591,51.7274974 3.58208955,45.9171644 3.58208955,39.86845 C3.58208955,38.4884623 3.65941087,37.1264466 3.80997385,35.7864726 L11.2809786,37.1038123 C12.2619089,37.2767767 13.1973255,36.621791 13.3702899,35.6408607 C13.5432544,34.6599304 12.8882688,33.7245138 11.9073384,33.5515494 L4.39124251,32.2262589 C5.97143379,24.8816092 9.78253636,18.3611741 15.0837995,13.403967 L20.0778187,19.3556074 C20.7180755,20.1186357 21.8556629,20.2181617 22.6186912,19.577905 C23.3817195,18.9376481 23.4812455,17.8000608 22.8409888,17.0370325 L17.836718,11.0731747 Z" id="Combined-Shape" fill="#D0021B"></path>
                <circle id="Oval-2" fill="url(#linearGradient-1)" style="mix-blend-mode: darken;" cx="49.5522388" cy="37.6119403" r="30.4477612"></circle>
                <path d="M40.5970149,42.9850746 C41.9159039,42.9850746 42.9850746,41.9159039 42.9850746,40.5970149 C42.9850746,39.278126 41.9159039,38.2089552 40.5970149,38.2089552 C39.278126,38.2089552 38.2089552,39.278126 38.2089552,40.5970149 C38.2089552,41.9159039 39.278126,42.9850746 40.5970149,42.9850746 Z M40.5970149,47.761194 C36.6403481,47.761194 33.4328358,44.5536818 33.4328358,40.5970149 C33.4328358,36.6403481 36.6403481,33.4328358 40.5970149,33.4328358 C44.5536818,33.4328358 47.761194,36.6403481 47.761194,40.5970149 C47.761194,44.5536818 44.5536818,47.761194 40.5970149,47.761194 Z" id="Oval-6" fill="#F8302B"></path>
                <polygon id="Rectangle-21" fill="#F8302B" transform="translate(52.537313, 38.208955) rotate(-11.000000) translate(-52.537313, -38.208955) " points="44.1791045 35.8208955 60.8955224 37.0149254 60.8955224 39.4029851 44.1791045 40.5970149"></polygon>
            </g>
        </g>
    </g>
</svg>