<?xml version="1.0" encoding="UTF-8"?>
<svg width="100px" height="100px" viewBox="0 0 100 100" version="1.1" xmlns="http://www.w3.org/2000/svg" xmlns:xlink="http://www.w3.org/1999/xlink">
    <!-- Generator: Sketch 51.3 (57544) - http://www.bohemiancoding.com/sketch -->
    <title>Group</title>
    <desc>Created with Sketch.</desc>
    <defs>
        <linearGradient x1="50%" y1="0%" x2="50%" y2="100%" id="linearGradient-1">
            <stop stop-color="#D0021B" offset="0%"></stop>
            <stop stop-color="#FFFFFF" offset="100%"></stop>
        </linearGradient>
    </defs>
    <g id="Page-1" stroke="none" stroke-width="1" fill="none" fill-rule="evenodd">
        <g id="Group">
            <rect id="Rectangle" fill="#FFFFFF" x="0" y="0" width="100" height="100"></rect>
            <g id="download" transform="translate(10.000000, 11.000000)" fill-rule="nonzero">
                <path d="M15.1351351,14.0540541 L15.1351351,63.7837838 L64.8648649,63.7837838 L64.8648649,14.0540541 L15.1351351,14.0540541 Z M11.8918919,10.8108108 L68.1081081,10.8108108 L68.1081081,67.027027 L11.8918919,67.027027 L11.8918919,10.8108108 Z" id="Rectangle-19" fill="#D0021B"></path>
                <path d="M46.4399883,8.64864865 C45.2715394,8.64864865 44.3243243,7.92262389 44.3243243,7.02702703 C44.3243243,6.13143014 45.2715394,5.40540541 46.4399883,5.40540541 L56.2627144,5.40540541 C57.4311634,5.40540541 58.3783784,6.13143014 58.3783784,7.02702703 C58.3783784,7.92262389 57.4311634,8.64864865 56.2627144,8.64864865 L46.4399883,8.64864865 Z" id="Line-3" fill="#D0021B" transform="translate(51.351351, 7.027027) rotate(90.000000) translate(-51.351351, -7.027027) "></path>
                <path d="M35.6291775,8.64864865 C34.4607285,8.64864865 33.5135135,7.92262389 33.5135135,7.02702703 C33.5135135,6.13143014 34.4607285,5.40540541 35.6291775,5.40540541 L45.4519036,5.40540541 C46.6203525,5.40540541 47.5675676,6.13143014 47.5675676,7.02702703 C47.5675676,7.92262389 46.6203525,8.64864865 45.4519036,8.64864865 L35.6291775,8.64864865 Z" id="Line-3-Copy" fill="#D0021B" transform="translate(40.540541, 7.027027) rotate(90.000000) translate(-40.540541, -7.027027) "></path>
                <path d="M24.8183667,8.64864865 C23.6499177,8.64864865 22.7027027,7.92262389 22.7027027,7.02702703 C22.7027027,6.13143014 23.6499177,5.40540541 24.8183667,5.40540541 L34.6410928,5.40540541 C35.8095417,5.40540541 36.7567568,6.13143014 36.7567568,7.02702703 C36.7567568,7.92262389 35.8095417,8.64864865 34.6410928,8.64864865 L24.8183667,8.64864865 Z" id="Line-3-Copy-2" fill="#D0021B" transform="translate(29.729730, 7.027027) rotate(90.000000) translate(-29.729730, -7.027027) "></path>
                <rect id="Rectangle-19" fill="url(#linearGradient-1)" style="mix-blend-mode: darken;" x="15.1351351" y="14.0540541" width="40" height="40"></rect>
                <path d="M2.16216216,29.1891892 C0.968032973,29.1891892 0,28.4631644 0,27.5675676 C0,26.6719707 0.968032973,25.9459459 2.16216216,25.9459459 L12.2007722,25.9459459 C13.3949014,25.9459459 14.3629344,26.6719707 14.3629344,27.5675676 C14.3629344,28.4631644 13.3949014,29.1891892 12.2007722,29.1891892 L2.16216216,29.1891892 Z" id="Line-3" fill="#D0021B"></path>
                <path d="M2.16216216,40 C0.968032973,40 0,39.2739752 0,38.3783784 C0,37.4827815 0.968032973,36.7567568 2.16216216,36.7567568 L12.2007722,36.7567568 C13.3949014,36.7567568 14.3629344,37.4827815 14.3629344,38.3783784 C14.3629344,39.2739752 13.3949014,40 12.2007722,40 L2.16216216,40 Z" id="Line-3-Copy" fill="#D0021B"></path>
                <path d="M2.16216216,50.8108108 C0.968032973,50.8108108 0,50.0847861 0,49.1891892 C0,48.2935923 0.968032973,47.5675676 2.16216216,47.5675676 L12.2007722,47.5675676 C13.3949014,47.5675676 14.3629344,48.2935923 14.3629344,49.1891892 C14.3629344,50.0847861 13.3949014,50.8108108 12.2007722,50.8108108 L2.16216216,50.8108108 Z" id="Line-3-Copy-2" fill="#D0021B"></path>
                <path d="M67.027027,29.1891892 C65.8328978,29.1891892 64.8648649,28.4631644 64.8648649,27.5675676 C64.8648649,26.6719707 65.8328978,25.9459459 67.027027,25.9459459 L77.0656371,25.9459459 C78.2597663,25.9459459 79.2277992,26.6719707 79.2277992,27.5675676 C79.2277992,28.4631644 78.2597663,29.1891892 77.0656371,29.1891892 L67.027027,29.1891892 Z" id="Line-3" fill="#D0021B"></path>
                <path d="M67.027027,40 C65.8328978,40 64.8648649,39.2739752 64.8648649,38.3783784 C64.8648649,37.4827815 65.8328978,36.7567568 67.027027,36.7567568 L77.0656371,36.7567568 C78.2597663,36.7567568 79.2277992,37.4827815 79.2277992,38.3783784 C79.2277992,39.2739752 78.2597663,40 77.0656371,40 L67.027027,40 Z" id="Line-3-Copy" fill="#D0021B"></path>
                <path d="M67.027027,50.8108108 C65.8328978,50.8108108 64.8648649,50.0847861 64.8648649,49.1891892 C64.8648649,48.2935923 65.8328978,47.5675676 67.027027,47.5675676 L77.0656371,47.5675676 C78.2597663,47.5675676 79.2277992,48.2935923 79.2277992,49.1891892 C79.2277992,50.0847861 78.2597663,50.8108108 77.0656371,50.8108108 L67.027027,50.8108108 Z" id="Line-3-Copy-2" fill="#D0021B"></path>
                <polygon id="Combined-Shape" fill="#D0021B" points="34.5945946 46.4864865 36.7567568 46.4864865 32.4324324 51.8918919 28.1081081 46.4864865 30.2702703 46.4864865 30.2702703 25.9459459 34.5945946 25.9459459"></polygon>
                <polygon id="Combined-Shape" fill="#D0021B" points="49.7297297 31.3513514 49.7297297 51.8918919 45.4054054 51.8918919 45.4054054 31.3513514 43.2432432 31.3513514 47.5675676 25.9459459 51.8918919 31.3513514"></polygon>
                <path d="M46.4399883,72.4324324 C45.2715394,72.4324324 44.3243243,71.7064077 44.3243243,70.8108108 C44.3243243,69.9152139 45.2715394,69.1891892 46.4399883,69.1891892 L56.2627144,69.1891892 C57.4311634,69.1891892 58.3783784,69.9152139 58.3783784,70.8108108 C58.3783784,71.7064077 57.4311634,72.4324324 56.2627144,72.4324324 L46.4399883,72.4324324 Z" id="Line-3" fill="#D0021B" transform="translate(51.351351, 70.810811) rotate(90.000000) translate(-51.351351, -70.810811) "></path>
                <path d="M35.6291775,72.4324324 C34.4607285,72.4324324 33.5135135,71.7064077 33.5135135,70.8108108 C33.5135135,69.9152139 34.4607285,69.1891892 35.6291775,69.1891892 L45.4519036,69.1891892 C46.6203525,69.1891892 47.5675676,69.9152139 47.5675676,70.8108108 C47.5675676,71.7064077 46.6203525,72.4324324 45.4519036,72.4324324 L35.6291775,72.4324324 Z" id="Line-3-Copy" fill="#D0021B" transform="translate(40.540541, 70.810811) rotate(90.000000) translate(-40.540541, -70.810811) "></path>
                <path d="M24.8183667,72.4324324 C23.6499177,72.4324324 22.7027027,71.7064077 22.7027027,70.8108108 C22.7027027,69.9152139 23.6499177,69.1891892 24.8183667,69.1891892 L34.6410928,69.1891892 C35.8095417,69.1891892 36.7567568,69.9152139 36.7567568,70.8108108 C36.7567568,71.7064077 35.8095417,72.4324324 34.6410928,72.4324324 L24.8183667,72.4324324 Z" id="Line-3-Copy-2" fill="#D0021B" transform="translate(29.729730, 70.810811) rotate(90.000000) translate(-29.729730, -70.810811) "></path>
            </g>
        </g>
    </g>
</svg>